<svg width="25" height="24" viewBox="0 0 25 24" fill="none" xmlns="http://www.w3.org/2000/svg">
<mask id="mask0_216_778" style="mask-type:alpha" maskUnits="userSpaceOnUse" x="0" y="0" width="25" height="24">
<rect x="0.5" width="24" height="24" fill="#D9D9D9"/>
</mask>
<g mask="url(#mask0_216_778)">
<path d="M9.57495 16.25L12.5 14.475L15.425 16.25L14.65 12.925L17.25 10.675L13.825 10.4L12.5 7.25L11.175 10.4L7.74995 10.675L10.35 12.925L9.57495 16.25ZM12.5 23.3L9.14995 20H4.49995V15.35L1.19995 12L4.49995 8.65V4H9.14995L12.5 0.699997L15.85 4H20.5V8.65L23.8 12L20.5 15.35V20H15.85L12.5 23.3ZM12.5 20.5L15 18H18.5V14.5L21 12L18.5 9.5V6H15L12.5 3.5L9.99995 6H6.49995V9.5L3.99995 12L6.49995 14.5V18H9.99995L12.5 20.5Z" fill="#595959"/>
</g>
</svg>
