<svg width="16" height="16" viewBox="0 0 16 16" fill="none" xmlns="http://www.w3.org/2000/svg">
<path d="M14.7198 1.29065C14.3038 0.874654 13.6318 0.874654 13.2158 1.29065L7.99977 6.49599L2.78377 1.27999C2.36777 0.863987 1.69577 0.863987 1.27977 1.27999C0.863773 1.69599 0.863773 2.36799 1.27977 2.78399L6.49577 7.99999L1.27977 13.216C0.863773 13.632 0.863773 14.304 1.27977 14.72C1.69577 15.136 2.36777 15.136 2.78377 14.72L7.99977 9.50399L13.2158 14.72C13.6318 15.136 14.3038 15.136 14.7198 14.72C15.1358 14.304 15.1358 13.632 14.7198 13.216L9.50377 7.99999L14.7198 2.78399C15.1251 2.37865 15.1251 1.69599 14.7198 1.29065Z" fill="white"/>
</svg>
