<svg width="25" height="24" viewBox="0 0 25 24" fill="none" xmlns="http://www.w3.org/2000/svg">
<mask id="mask0_216_768" style="mask-type:alpha" maskUnits="userSpaceOnUse" x="0" y="0" width="25" height="24">
<rect x="0.5" width="24" height="24" fill="#D9D9D9"/>
</mask>
<g mask="url(#mask0_216_768)">
<path d="M3.5 22V20H5.5V16.8C4.91667 16.6 4.4375 16.2458 4.0625 15.7375C3.6875 15.2292 3.5 14.65 3.5 14V6H9.5V14C9.5 14.65 9.3125 15.2292 8.9375 15.7375C8.5625 16.2458 8.08333 16.6 7.5 16.8V20H9.5V22H3.5ZM5.5 11H7.5V8H5.5V11ZM6.5 15C6.78333 15 7.02083 14.9042 7.2125 14.7125C7.40417 14.5208 7.5 14.2833 7.5 14V13H5.5V14C5.5 14.2833 5.59583 14.5208 5.7875 14.7125C5.97917 14.9042 6.21667 15 6.5 15ZM13.5 22C12.95 22 12.4792 21.8042 12.0875 21.4125C11.6958 21.0208 11.5 20.55 11.5 20V10.45C11.5 10.0167 11.625 9.62917 11.875 9.2875C12.125 8.94583 12.45 8.7 12.85 8.55L13.8 8.2C14.0333 8.11667 14.2083 7.99583 14.325 7.8375C14.4417 7.67917 14.5 7.48333 14.5 7.25V3C14.5 2.71667 14.5958 2.47917 14.7875 2.2875C14.9792 2.09583 15.2167 2 15.5 2H18.5C18.7833 2 19.0208 2.09583 19.2125 2.2875C19.4042 2.47917 19.5 2.71667 19.5 3V7.25C19.5 7.48333 19.5583 7.67917 19.675 7.8375C19.7917 7.99583 19.9667 8.11667 20.2 8.2L21.15 8.55C21.55 8.7 21.875 8.94583 22.125 9.2875C22.375 9.62917 22.5 10.0167 22.5 10.45V20C22.5 20.55 22.3042 21.0208 21.9125 21.4125C21.5208 21.8042 21.05 22 20.5 22H13.5ZM16.5 5H17.5V4H16.5V5ZM13.5 12H20.5V10.45L19.55 10.1C18.9167 9.86667 18.4167 9.5 18.05 9C17.6833 8.5 17.5 7.93333 17.5 7.3V7H16.5V7.3C16.5 7.93333 16.3167 8.5 15.95 9C15.5833 9.5 15.0833 9.86667 14.45 10.1L13.5 10.45V12ZM13.5 20H20.5V18H13.5V20ZM13.5 16H20.5V14H13.5V16Z" fill="black" fill-opacity="0.65"/>
</g>
</svg>
