<svg width="25" height="24" viewBox="0 0 25 24" fill="none" xmlns="http://www.w3.org/2000/svg">
<mask id="mask0_216_773" style="mask-type:alpha" maskUnits="userSpaceOnUse" x="0" y="0" width="25" height="24">
<rect x="0.5" width="24" height="24" fill="#D9D9D9"/>
</mask>
<g mask="url(#mask0_216_773)">
<path d="M12.2109 19H13.963V17.75C14.7973 17.6 15.5148 17.275 16.1155 16.775C16.7162 16.275 17.0165 15.5333 17.0165 14.55C17.0165 13.85 16.8163 13.2083 16.4158 12.625C16.0154 12.0417 15.2144 11.5333 14.013 11.1C13.0119 10.7667 12.3194 10.475 11.9356 10.225C11.5518 9.975 11.36 9.63333 11.36 9.2C11.36 8.76667 11.5143 8.425 11.823 8.175C12.1317 7.925 12.578 7.8 13.1621 7.8C13.696 7.8 14.1132 7.92917 14.4135 8.1875C14.7139 8.44583 14.9308 8.76667 15.0643 9.15L16.6661 8.5C16.4826 7.91667 16.1447 7.40833 15.6525 6.975C15.1602 6.54167 14.6137 6.3 14.013 6.25V5H12.261V6.25C11.4267 6.43333 10.7759 6.8 10.3087 7.35C9.84152 7.9 9.60792 8.51667 9.60792 9.2C9.60792 9.98333 9.83735 10.6167 10.2962 11.1C10.7551 11.5833 11.4768 12 12.4612 12.35C13.5125 12.7333 14.2425 13.075 14.6513 13.375C15.0601 13.675 15.2645 14.0667 15.2645 14.55C15.2645 15.1 15.0684 15.5042 14.6763 15.7625C14.2842 16.0208 13.8128 16.15 13.2622 16.15C12.7115 16.15 12.2235 15.9792 11.798 15.6375C11.3725 15.2958 11.0596 14.7833 10.8594 14.1L9.20745 14.75C9.44106 15.55 9.80398 16.1958 10.2962 16.6875C10.7885 17.1792 11.4267 17.5167 12.2109 17.7V19ZM13.112 22C11.7271 22 10.4255 21.7375 9.20745 21.2125C7.98937 20.6875 6.9298 19.975 6.02875 19.075C5.1277 18.175 4.41437 17.1167 3.88876 15.9C3.36315 14.6833 3.10034 13.3833 3.10034 12C3.10034 10.6167 3.36315 9.31667 3.88876 8.1C4.41437 6.88333 5.1277 5.825 6.02875 4.925C6.9298 4.025 7.98937 3.3125 9.20745 2.7875C10.4255 2.2625 11.7271 2 13.112 2C14.4969 2 15.7985 2.2625 17.0165 2.7875C18.2346 3.3125 19.2942 4.025 20.1952 4.925C21.0963 5.825 21.8096 6.88333 22.3352 8.1C22.8608 9.31667 23.1237 10.6167 23.1237 12C23.1237 13.3833 22.8608 14.6833 22.3352 15.9C21.8096 17.1167 21.0963 18.175 20.1952 19.075C19.2942 19.975 18.2346 20.6875 17.0165 21.2125C15.7985 21.7375 14.4969 22 13.112 22ZM13.112 20C15.3479 20 17.2418 19.225 18.7936 17.675C20.3454 16.125 21.1213 14.2333 21.1213 12C21.1213 9.76667 20.3454 7.875 18.7936 6.325C17.2418 4.775 15.3479 4 13.112 4C10.8761 4 8.98219 4.775 7.43038 6.325C5.87858 7.875 5.10267 9.76667 5.10267 12C5.10267 14.2333 5.87858 16.125 7.43038 17.675C8.98219 19.225 10.8761 20 13.112 20Z" fill="black" fill-opacity="0.65"/>
</g>
</svg>
