<svg width="25" height="24" viewBox="0 0 25 24" fill="none" xmlns="http://www.w3.org/2000/svg">
<mask id="mask0_216_757" style="mask-type:alpha" maskUnits="userSpaceOnUse" x="0" y="0" width="25" height="24">
<rect x="0.5" width="24" height="24" fill="#D9D9D9"/>
</mask>
<g mask="url(#mask0_216_757)">
<path d="M12.5 22C11.1167 22 9.81667 21.7375 8.6 21.2125C7.38333 20.6875 6.325 19.975 5.425 19.075C4.525 18.175 3.8125 17.1167 3.2875 15.9C2.7625 14.6833 2.5 13.3833 2.5 12C2.5 10.6167 2.7625 9.31667 3.2875 8.1C3.8125 6.88333 4.525 5.825 5.425 4.925C6.325 4.025 7.38333 3.3125 8.6 2.7875C9.81667 2.2625 11.1167 2 12.5 2C14.9333 2 17.0625 2.7625 18.8875 4.2875C20.7125 5.8125 21.85 7.725 22.3 10.025H20.25C19.9333 8.80833 19.3625 7.72083 18.5375 6.7625C17.7125 5.80417 16.7 5.08333 15.5 4.6V5C15.5 5.55 15.3042 6.02083 14.9125 6.4125C14.5208 6.80417 14.05 7 13.5 7H11.5V9C11.5 9.28333 11.4042 9.52083 11.2125 9.7125C11.0208 9.90417 10.7833 10 10.5 10H8.5V12H10.5V15H9.5L4.7 10.2C4.65 10.5 4.60417 10.8 4.5625 11.1C4.52083 11.4 4.5 11.7 4.5 12C4.5 14.1833 5.26667 16.0583 6.8 17.625C8.33333 19.1917 10.2333 19.9833 12.5 20V22ZM21.6 21.5L18.4 18.3C18.05 18.5 17.675 18.6667 17.275 18.8C16.875 18.9333 16.45 19 16 19C14.75 19 13.6875 18.5625 12.8125 17.6875C11.9375 16.8125 11.5 15.75 11.5 14.5C11.5 13.25 11.9375 12.1875 12.8125 11.3125C13.6875 10.4375 14.75 10 16 10C17.25 10 18.3125 10.4375 19.1875 11.3125C20.0625 12.1875 20.5 13.25 20.5 14.5C20.5 14.95 20.4333 15.375 20.3 15.775C20.1667 16.175 20 16.55 19.8 16.9L23 20.1L21.6 21.5ZM16 17C16.7 17 17.2917 16.7583 17.775 16.275C18.2583 15.7917 18.5 15.2 18.5 14.5C18.5 13.8 18.2583 13.2083 17.775 12.725C17.2917 12.2417 16.7 12 16 12C15.3 12 14.7083 12.2417 14.225 12.725C13.7417 13.2083 13.5 13.8 13.5 14.5C13.5 15.2 13.7417 15.7917 14.225 16.275C14.7083 16.7583 15.3 17 16 17Z" fill="black" fill-opacity="0.65"/>
</g>
</svg>
